<?xml version="1.0" encoding="UTF-8" standalone="no"?><!DOCTYPE svg PUBLIC "-//W3C//DTD SVG 1.1//EN" "http://www.w3.org/Graphics/SVG/1.1/DTD/svg11.dtd"><svg width="100%" height="100%" viewBox="0 0 18 24" version="1.1" xmlns="http://www.w3.org/2000/svg" xmlns:xlink="http://www.w3.org/1999/xlink" xml:space="preserve" xmlns:serif="http://www.serif.com/" style="fill-rule:evenodd;clip-rule:evenodd;stroke-linejoin:round;stroke-miterlimit:2;"><clipPath id="_clip1"><rect id="Power-BI.svg" x="0" y="0" width="18" height="24"/></clipPath><g clip-path="url(#_clip1)"><g id="g19611"><path id="path19603" d="M18,1.001l0,21.998c0,0.553 -0.448,1.001 -1.001,1.001l-6.248,0c-0.553,0 -1.001,-0.448 -1.001,-1.001l0,-21.998c0,-0.553 0.448,-1.001 1.001,-1.001l6.248,-0c0.553,-0 1.001,0.448 1.001,1.001Z" style="fill:url(#_Linear2);fill-rule:nonzero;"/><g id="g19607"><path id="path19605" d="M13.125,7l0,17l-8.25,0l0,-17c0,-0.552 0.448,-1 1,-1l6.25,0c0.552,0 1,0.448 1,1Z" style="fill:url(#_Linear3);fill-rule:nonzero;"/></g><path id="path19609" d="M0,13l0,10c0,0.552 0.448,1 1,1l7.25,0l0,-11c0,-0.552 -0.448,-1 -1,-1l-6.25,0c-0.552,0 -1,0.448 -1,1Z" style="fill:url(#_Linear4);fill-rule:nonzero;"/></g></g><defs><linearGradient id="_Linear2" x1="0" y1="0" x2="1" y2="0" gradientUnits="userSpaceOnUse" gradientTransform="matrix(10.3423,22.6073,-22.6073,10.3423,8.375,-2.24448e-07)"><stop offset="0" style="stop-color:#e6ad10;stop-opacity:1"/><stop offset="1" style="stop-color:#c87e0e;stop-opacity:1"/></linearGradient><linearGradient id="_Linear3" x1="0" y1="0" x2="1" y2="0" gradientUnits="userSpaceOnUse" gradientTransform="matrix(8.71252,17.4251,-17.4251,8.71252,4.87433,6)"><stop offset="0" style="stop-color:#f6d751;stop-opacity:1"/><stop offset="1" style="stop-color:#e6ad10;stop-opacity:1"/></linearGradient><linearGradient id="_Linear4" x1="0" y1="0" x2="1" y2="0" gradientUnits="userSpaceOnUse" gradientTransform="matrix(4.79744,11.7252,-11.7252,4.79744,-0.000675,12)"><stop offset="0" style="stop-color:#f9e589;stop-opacity:1"/><stop offset="1" style="stop-color:#f6d751;stop-opacity:1"/></linearGradient></defs></svg>